<svg width="18" height="21" viewBox="0 0 18 21" fill="none" xmlns="http://www.w3.org/2000/svg">
<path d="M16 20.9277H2C0.89543 20.9277 0 20.0323 0 18.9277V4.92773C0 3.82316 0.89543 2.92773 2 2.92773H4V0.927734H6V2.92773H12V0.927734H14V2.92773H16C17.1046 2.92773 18 3.82316 18 4.92773V18.9277C18 20.0323 17.1046 20.9277 16 20.9277ZM2 8.92773V18.9277H16V8.92773H2ZM2 4.92773V6.92773H16V4.92773H2ZM14 16.9277H12V14.9277H14V16.9277ZM10 16.9277H8V14.9277H10V16.9277ZM6 16.9277H4V14.9277H6V16.9277ZM14 12.9277H12V10.9277H14V12.9277ZM10 12.9277H8V10.9277H10V12.9277ZM6 12.9277H4V10.9277H6V12.9277Z" fill="#2E3A59"/>
</svg>
