<svg width="13" height="13" viewBox="0 0 13 13" fill="none" xmlns="http://www.w3.org/2000/svg">
<path d="M12.165 12.9219C5.76883 12.931 0.914551 8.01852 0.921394 1.67834C0.921394 1.26429 1.25705 0.926758 1.67109 0.926758H3.64981C4.02134 0.926758 4.33696 1.19974 4.39151 1.56725C4.52227 2.44804 4.77871 3.30552 5.15304 4.1135L5.23008 4.27978C5.3372 4.51099 5.26459 4.78571 5.05722 4.93379C4.44444 5.37141 4.21025 6.25227 4.68764 6.9396C5.28671 7.80211 6.04186 8.5571 6.90418 9.1559C7.59146 9.63315 8.47219 9.399 8.90979 8.78632C9.05798 8.57884 9.33285 8.5062 9.56419 8.61337L9.72972 8.69004C10.5377 9.06435 11.3953 9.3208 12.2762 9.45153C12.6437 9.50607 12.9165 9.82168 12.9165 10.1932V12.1722C12.9165 12.5863 12.5801 12.9219 12.166 12.9219L12.165 12.9219Z" fill="#1A3444"/>
</svg>
