<svg width="15" height="19" viewBox="0 0 15 19" fill="none" xmlns="http://www.w3.org/2000/svg">
<path d="M7.84229 18.9275C6.57922 17.8502 5.40847 16.6691 4.34229 15.3965C2.74229 13.4855 0.842286 10.6395 0.842286 7.92754C0.840868 5.09509 2.54653 2.54093 5.16335 1.45694C7.78018 0.372945 10.7924 0.972781 12.7943 2.97654C14.1107 4.28715 14.8482 6.06993 14.8423 7.92754C14.8423 10.6395 12.9423 13.4855 11.3423 15.3965C10.2761 16.6691 9.10535 17.8502 7.84229 18.9275ZM7.84229 2.92754C5.08223 2.93085 2.84559 5.16749 2.84229 7.92754C2.84229 9.09354 3.36929 11.1125 5.87729 14.1135C6.49543 14.8516 7.1513 15.5572 7.84229 16.2275C8.53333 15.558 9.18953 14.8534 9.80829 14.1165C12.3153 11.1115 12.8423 9.09254 12.8423 7.92754C12.839 5.16749 10.6023 2.93085 7.84229 2.92754ZM7.84229 10.9275C6.18543 10.9275 4.84229 9.58439 4.84229 7.92754C4.84229 6.27069 6.18543 4.92754 7.84229 4.92754C9.49914 4.92754 10.8423 6.27069 10.8423 7.92754C10.8423 8.72319 10.5262 9.48625 9.96361 10.0489C9.401 10.6115 8.63794 10.9275 7.84229 10.9275Z" fill="#1A3444"/>
</svg>
